<?xml version="1.0" standalone="no"?>
<!DOCTYPE svg PUBLIC "-//W3C//DTD SVG 20010904//EN"
 "http://www.w3.org/TR/2001/REC-SVG-20010904/DTD/svg10.dtd">
<svg version="1.0" xmlns="http://www.w3.org/2000/svg"
 width="883.000000pt" height="883.000000pt" viewBox="0 0 883.000000 883.000000"
 preserveAspectRatio="xMidYMid meet">
<metadata>
Created by potrace 1.14, written by Peter Selinger 2001-2017
</metadata>
<g transform="translate(0.000000,883.000000) scale(0.100000,-0.100000)"
fill="#000000" stroke="none">
<path d="M4178 8825 c-2 -2 -46 -6 -98 -9 -52 -3 -131 -10 -175 -16 -44 -6
-100 -13 -125 -16 -196 -24 -699 -144 -737 -176 -7 -6 -13 -8 -13 -5 0 27
-608 -235 -742 -320 -21 -13 -64 -37 -95 -54 -31 -17 -87 -50 -123 -73 -36
-24 -85 -55 -110 -71 -25 -15 -49 -32 -55 -39 -5 -6 -37 -29 -69 -51 -33 -22
-77 -53 -97 -70 -20 -16 -51 -41 -69 -55 -29 -22 -95 -77 -126 -105 -6 -5 -37
-32 -69 -60 -125 -107 -334 -325 -468 -488 -18 -22 -39 -47 -47 -57 -8 -10
-22 -28 -30 -41 -8 -12 -23 -29 -32 -38 -10 -8 -18 -19 -18 -24 0 -5 -6 -15
-13 -22 -29 -33 -37 -45 -37 -54 0 -5 -4 -11 -8 -13 -8 -3 -122 -166 -122
-173 0 -2 -15 -26 -32 -52 -31 -45 -60 -94 -90 -153 -7 -14 -15 -27 -18 -30
-4 -3 -22 -36 -41 -75 -19 -38 -46 -90 -59 -115 -13 -25 -24 -47 -25 -50 0 -3
-10 -25 -21 -50 -44 -94 -58 -125 -59 -130 0 -3 -7 -16 -15 -30 -7 -14 -13
-26 -12 -28 1 -1 -5 -18 -13 -38 -8 -20 -15 -42 -15 -48 0 -7 -5 -17 -11 -23
-6 -6 -12 -19 -14 -29 -2 -11 -4 -20 -5 -21 -2 -2 -4 -7 -5 -13 -1 -5 -4 -12
-5 -15 -1 -3 -4 -9 -5 -15 -1 -5 -3 -11 -5 -12 -1 -2 -3 -10 -5 -18 -2 -8 -13
-39 -23 -67 -11 -29 -19 -53 -17 -53 2 0 -3 -16 -11 -35 -8 -19 -12 -35 -10
-35 3 0 -4 -25 -14 -55 -10 -30 -33 -116 -50 -191 -34 -156 -37 -167 -54 -284
-3 -19 -8 -45 -10 -57 -3 -12 -7 -50 -11 -84 -4 -35 -8 -66 -10 -69 -2 -3 -6
-50 -10 -105 -3 -55 -8 -116 -10 -135 -5 -41 -5 -481 -1 -525 2 -16 7 -68 10
-115 37 -460 171 -987 356 -1395 17 -38 31 -72 32 -75 1 -26 194 -375 301
-545 30 -49 205 -295 216 -305 3 -3 22 -25 40 -50 19 -25 43 -54 53 -65 10
-11 26 -30 35 -41 131 -157 320 -347 509 -511 12 -10 36 -29 54 -43 18 -14 38
-30 44 -35 14 -14 175 -135 206 -155 12 -8 28 -19 34 -25 21 -19 157 -108 186
-121 8 -4 17 -10 20 -13 8 -10 43 -30 83 -48 20 -10 37 -21 37 -25 0 -5 6 -8
14 -8 7 0 19 -7 26 -15 7 -8 16 -13 20 -10 5 3 10 2 12 -3 4 -10 321 -165 413
-203 11 -4 41 -17 68 -28 26 -11 47 -17 47 -14 0 3 6 1 13 -5 6 -6 48 -22 92
-37 110 -37 110 -37 111 -33 0 2 8 -3 17 -11 10 -7 17 -10 17 -7 0 4 8 2 18
-3 11 -6 30 -12 43 -15 13 -3 56 -14 94 -26 39 -11 79 -22 90 -25 24 -5 44
-10 110 -25 28 -7 60 -14 72 -15 11 -2 30 -6 41 -9 11 -4 35 -9 53 -11 19 -3
45 -7 59 -10 14 -3 41 -7 60 -10 19 -3 45 -7 58 -9 13 -3 53 -8 90 -12 36 -3
73 -7 82 -9 131 -25 789 -25 930 0 18 3 122 16 165 21 84 9 286 50 449 90 471
117 924 318 1353 601 62 40 118 79 125 86 7 7 36 28 63 46 28 19 52 38 55 41
3 4 30 25 62 48 31 23 69 53 85 68 15 14 50 45 78 68 62 52 358 348 405 406
19 23 42 50 51 59 8 9 42 50 75 91 32 41 61 77 64 80 3 3 17 21 30 40 13 19
30 41 37 48 7 7 13 17 13 21 0 4 12 21 26 37 14 16 30 38 35 49 9 20 49 79 69
102 5 7 10 14 10 17 0 3 14 25 30 49 17 25 30 50 30 56 0 6 4 11 9 11 5 0 14
12 20 28 6 15 24 50 41 77 33 57 152 291 151 300 0 2 8 21 19 40 11 20 20 42
20 50 0 8 4 15 9 15 5 0 12 12 17 28 10 35 18 57 41 112 3 8 7 17 8 20 3 10
17 46 30 80 12 31 24 67 31 95 2 6 10 30 19 55 9 25 19 52 21 60 2 8 10 40 19
70 9 30 20 71 25 90 9 38 39 164 45 193 2 10 6 26 9 35 7 22 14 65 22 122 3
25 9 61 14 80 5 19 11 60 14 90 4 30 9 69 11 85 33 195 37 622 10 960 -8 109
-54 402 -75 485 -5 19 -23 94 -40 165 -65 264 -180 582 -301 830 -48 99 -72
144 -164 310 -64 115 -168 269 -287 428 -89 117 -105 138 -143 181 -11 13 -40
47 -65 77 -54 65 -335 346 -410 411 -73 62 -93 78 -131 108 -18 14 -37 30 -43
35 -6 6 -27 22 -46 35 -19 13 -39 30 -43 37 -4 7 -12 13 -18 13 -5 0 -15 5
-22 10 -55 47 -74 60 -83 60 -7 0 -14 7 -18 15 -3 8 -12 15 -21 15 -8 0 -15 4
-15 8 0 5 -18 17 -40 28 -22 10 -40 22 -40 27 0 4 -7 7 -15 7 -8 0 -15 5 -15
10 0 6 -4 10 -10 10 -5 0 -19 8 -30 18 -11 9 -22 15 -24 12 -2 -3 -12 2 -22
11 -11 9 -39 27 -64 40 -25 13 -47 26 -50 29 -3 3 -32 19 -65 35 -33 15 -63
33 -67 39 -5 7 -8 7 -8 1 0 -7 -3 -7 -8 0 -6 9 -99 59 -112 61 -5 0 -49 20
-145 64 -22 10 -62 27 -90 38 -27 10 -59 23 -70 27 -11 5 -22 9 -25 9 -3 1
-15 7 -27 14 -13 7 -23 10 -23 7 0 -3 -13 1 -30 10 -16 8 -32 15 -35 15 -8 0
-23 4 -45 13 -23 8 -139 44 -190 58 -25 7 -49 14 -55 15 -13 4 -136 35 -155
39 -8 2 -35 8 -60 14 -25 5 -58 12 -75 15 -16 3 -41 8 -55 11 -13 2 -42 7 -64
11 -22 3 -43 7 -46 9 -3 2 -32 6 -65 10 -33 3 -71 8 -85 10 -48 6 -143 17
-184 21 -53 5 -594 13 -598 9z"/>
</g>
</svg>
